<svg width="88" height="88" viewBox="0 0 88 88" fill="none" xmlns="http://www.w3.org/2000/svg">
<path d="M4.58333 78.8333C7.11464 78.8333 9.16667 76.7813 9.16667 74.25C9.16667 71.7187 7.11464 69.6666 4.58333 69.6666C2.05203 69.6666 0 71.7187 0 74.25C0 76.7813 2.05203 78.8333 4.58333 78.8333Z" fill="#2A00D7"/>
<path d="M84.3338 31.4454C84.3338 18.1935 73.5754 7.43268 60.3268 7.43268H49.3692H29.1476C16.895 7.43268 7.03322 17.0975 6.63477 29.2533C7.83013 28.8548 7.83013 28.8548 6.63477 29.2533C6.63477 29.4526 6.63477 29.7515 6.63477 29.9508V53.9635V58.1483C6.63477 70.603 16.6958 80.6664 29.1476 80.6664H84.3338V53.8638V31.4454Z" fill="#370EFF"/>
<path d="M48.2735 16.5C48.2735 13.3116 48.6719 10.2228 49.3692 7.33331H29.1476C16.9946 7.33331 7.03322 16.9982 6.63477 29.154C7.83013 28.7554 9.0255 28.5561 10.3205 28.5561C17.3931 28.5561 23.0711 34.3351 23.0711 41.509C23.0711 48.6829 17.3931 54.4619 10.3205 54.4619C9.0255 54.4619 7.73052 54.2627 6.63477 53.8641V57.9493C6.63477 70.404 16.6958 80.4674 29.1476 80.4674H84.3338V53.7645C64.4109 53.4656 48.2735 36.9257 48.2735 16.5Z" fill="#2B00D4"/>
<path d="M52.7305 44.1194C52.7305 46.0125 51.2985 47.5071 49.4847 47.5071H28.5782C26.7644 47.5071 25.3324 46.0125 25.3324 44.1194C25.3324 42.2263 26.7644 40.7317 28.5782 40.7317H49.4847C51.2985 40.7317 52.7305 42.2263 52.7305 44.1194Z" fill="white"/>
<path d="M62.4067 47.5072C60.4221 47.5072 58.8133 45.9013 58.8133 43.9203C58.8133 41.9392 60.4221 40.3333 62.4067 40.3333C64.3912 40.3333 66 41.9392 66 43.9203C66 45.9013 64.3912 47.5072 62.4067 47.5072Z" fill="#00E4FF"/>
<path d="M87.289 11L85.934 10.3841L86.5499 9.0291C86.7963 8.41319 86.5499 7.67408 85.934 7.42772C85.3181 7.18136 84.579 7.42772 84.3327 8.04362L83.7168 9.39862L82.3618 8.78272C81.7459 8.53636 81.0068 8.78272 80.7604 9.39862C80.5141 10.0145 80.7604 10.7536 81.3763 11L82.7314 11.6159L82.1154 12.9709C81.8691 13.5868 82.1154 14.3259 82.7314 14.5722C83.3473 14.8186 84.0863 14.5722 84.3327 13.9563L84.9486 12.6013L86.3035 13.2172C86.9194 13.4636 87.6586 13.2172 87.9049 12.6013C88.1513 11.9854 87.9049 11.2463 87.289 11Z" fill="#370EFF"/>
</svg>
